<?xml version="1.0" encoding="iso-8859-1"?>
<!-- Generator: Adobe Illustrator 19.0.0, SVG Export Plug-In . SVG Version: 6.00 Build 0)  -->
<svg version="1.1" id="Layer_1" xmlns="http://www.w3.org/2000/svg" xmlns:xlink="http://www.w3.org/1999/xlink" x="0px" y="0px"
	 viewBox="0 0 511.829 511.829" style="enable-background:new 0 0 511.829 511.829;" xml:space="preserve">
<g>
	<g>
		<g>
			<path d="M475.701,96.657l-74.066-93.54c-3.298-4.157-10.318-4.157-13.616,0l-73.928,93.41
				c-42.661,45.959-42.626,119.99,0.243,165.202c22.19,22.068,51.339,33.098,80.488,33.098s58.307-11.038,80.497-33.098
				c0.139-0.13,0.269-0.269,0.391-0.408C518.127,213.298,518.093,139.553,475.701,96.657z M394.822,260.168
				c-20.957,0-40.7-8.044-55.608-22.649c-30.165-32.273-29.904-84.81,0.321-117.387l0.937-0.998
				c3.272-3.497,8.765-3.697,12.262-0.434c3.506,3.263,3.697,8.756,0.434,12.262l-0.929,0.998
				c-24.142,26.025-24.428,67.948-0.616,93.436c11.377,11.134,26.815,17.417,43.199,17.417c4.79,0,8.678,3.879,8.678,8.678
				S399.612,260.168,394.822,260.168z"/>
			<path d="M260.112,256.115L158.328,141.592c-1.666-1.874-3.862-2.777-6.578-2.916c-2.517,0.026-4.894,1.145-6.517,3.063
				L48.196,256.08C19.897,284.379,4.32,321.998,4.32,362.012c0,40.023,15.577,77.65,43.876,105.932
				c28.299,28.299,65.918,43.884,105.932,43.884c39.936,0,77.486-15.516,105.758-43.702c31.128-27.848,48.38-65.076,48.588-104.847
				C308.682,322.901,291.508,284.874,260.112,256.115z M154.128,477.117c-30.746,0-59.652-11.976-81.382-33.714
				c-21.712-21.704-33.67-50.61-33.67-81.391c0-30.772,11.958-59.678,33.67-81.391l0.998-0.998c3.384-3.384,8.878-3.384,12.271,0
				c3.393,3.393,3.393,8.886,0,12.271l-0.998,0.998c-18.432,18.441-28.585,42.991-28.585,69.12c0,26.147,10.153,50.688,28.585,69.12
				c18.458,18.458,43.008,28.629,69.111,28.629c4.79,0,8.678,3.879,8.678,8.678S158.918,477.117,154.128,477.117z"/>
		</g>
	</g>
</g>
<g>
</g>
<g>
</g>
<g>
</g>
<g>
</g>
<g>
</g>
<g>
</g>
<g>
</g>
<g>
</g>
<g>
</g>
<g>
</g>
<g>
</g>
<g>
</g>
<g>
</g>
<g>
</g>
<g>
</g>
</svg>
